# xmcd
#
# Track frame offsets:
#	150
#	19524
#	42840
#	74616
#	88957
#	105680
#	136390
#	151867
#	179050
#	193971
#	211286
#
# Disc length: 2957 seconds
#
# Revision: 0
# Processed by: cddbd v1.5.2PL0 Copyright (c) Steve Scherf et al.
# Submitted via: EasyCDDAExtractor 15.3.0.1
#
DISCID=a00b8b0b
DTITLE=Tab Benoit - Fever For The Bayou
DYEAR=2005
DGENRE=Blues
TTITLE0=Night Train
TTITLE1=Little Girl Blues
TTITLE2=I Smell A Rat
TTITLE3=Fever For The Bayou
TTITLE4=Lost In Your Lovin'
TTITLE5=Golden Crown
TTITLE6=I Can't Hold Out
TTITLE7=The Blues Is Here To Stay
TTITLE8=Got Love If You Want It
TTITLE9=Blues So Bad
TTITLE10=My Bucket's Got A Hole In It
EXTD=
EXTT0=
EXTT1=
EXTT2=
EXTT3=
EXTT4=
EXTT5=
EXTT6=
EXTT7=
EXTT8=
EXTT9=
EXTT10=
PLAYORDER=
